<mxfile host="Electron" modified="2023-05-30T14:29:54.818Z" agent="Mozilla/5.0 (Windows NT 10.0; Win64; x64) AppleWebKit/537.36 (KHTML, like Gecko) draw.io/21.2.8 Chrome/112.0.5615.165 Electron/24.2.0 Safari/537.36" etag="b5dSu60IozZx2dkTDqFh" version="21.2.8" type="device">
  <diagram name="第 1 页" id="nv5SiyUGTCLZu7u0U8Ej">
    <mxGraphModel dx="1562" dy="917" grid="1" gridSize="10" guides="1" tooltips="1" connect="1" arrows="1" fold="1" page="1" pageScale="1" pageWidth="3300" pageHeight="2339" math="0" shadow="0">
      <root>
        <mxCell id="0" />
        <mxCell id="1" parent="0" />
        <mxCell id="bNCjpuBElS5nVC7aKLoU-1" style="edgeStyle=orthogonalEdgeStyle;rounded=0;orthogonalLoop=1;jettySize=auto;html=1;jumpStyle=arc;" parent="1" source="bNCjpuBElS5nVC7aKLoU-2" target="bNCjpuBElS5nVC7aKLoU-7" edge="1">
          <mxGeometry relative="1" as="geometry">
            <Array as="points">
              <mxPoint x="285" y="1300" />
              <mxPoint x="285" y="1300" />
            </Array>
          </mxGeometry>
        </mxCell>
        <mxCell id="bNCjpuBElS5nVC7aKLoU-26" style="edgeStyle=orthogonalEdgeStyle;rounded=0;orthogonalLoop=1;jettySize=auto;html=1;startArrow=classic;startFill=1;" parent="1" source="bNCjpuBElS5nVC7aKLoU-2" target="bNCjpuBElS5nVC7aKLoU-23" edge="1">
          <mxGeometry relative="1" as="geometry">
            <Array as="points">
              <mxPoint x="285" y="1050" />
              <mxPoint x="1090" y="1050" />
            </Array>
          </mxGeometry>
        </mxCell>
        <mxCell id="bNCjpuBElS5nVC7aKLoU-32" style="edgeStyle=orthogonalEdgeStyle;rounded=0;orthogonalLoop=1;jettySize=auto;html=1;startArrow=classic;startFill=1;" parent="1" source="bNCjpuBElS5nVC7aKLoU-2" target="bNCjpuBElS5nVC7aKLoU-5" edge="1">
          <mxGeometry relative="1" as="geometry" />
        </mxCell>
        <mxCell id="bNCjpuBElS5nVC7aKLoU-2" value="AirBorne" style="rounded=1;whiteSpace=wrap;html=1;" parent="1" vertex="1">
          <mxGeometry x="225" y="1150" width="120" height="60" as="geometry" />
        </mxCell>
        <mxCell id="bNCjpuBElS5nVC7aKLoU-4" style="edgeStyle=orthogonalEdgeStyle;rounded=0;orthogonalLoop=1;jettySize=auto;html=1;" parent="1" source="bNCjpuBElS5nVC7aKLoU-5" target="bNCjpuBElS5nVC7aKLoU-7" edge="1">
          <mxGeometry relative="1" as="geometry">
            <Array as="points">
              <mxPoint x="580" y="1550" />
              <mxPoint x="580" y="1550" />
            </Array>
          </mxGeometry>
        </mxCell>
        <mxCell id="bNCjpuBElS5nVC7aKLoU-28" style="edgeStyle=orthogonalEdgeStyle;rounded=0;orthogonalLoop=1;jettySize=auto;html=1;" parent="1" source="bNCjpuBElS5nVC7aKLoU-5" target="bNCjpuBElS5nVC7aKLoU-23" edge="1">
          <mxGeometry relative="1" as="geometry">
            <Array as="points">
              <mxPoint x="820" y="1530" />
              <mxPoint x="820" y="1530" />
            </Array>
          </mxGeometry>
        </mxCell>
        <mxCell id="bNCjpuBElS5nVC7aKLoU-5" value="Climb" style="rounded=1;whiteSpace=wrap;html=1;" parent="1" vertex="1">
          <mxGeometry x="620" y="1510" width="120" height="60" as="geometry" />
        </mxCell>
        <mxCell id="bNCjpuBElS5nVC7aKLoU-6" style="edgeStyle=orthogonalEdgeStyle;rounded=0;orthogonalLoop=1;jettySize=auto;html=1;" parent="1" source="bNCjpuBElS5nVC7aKLoU-7" target="bNCjpuBElS5nVC7aKLoU-5" edge="1">
          <mxGeometry relative="1" as="geometry">
            <Array as="points">
              <mxPoint x="580" y="1530" />
              <mxPoint x="580" y="1530" />
            </Array>
          </mxGeometry>
        </mxCell>
        <mxCell id="bNCjpuBElS5nVC7aKLoU-29" style="edgeStyle=orthogonalEdgeStyle;rounded=0;orthogonalLoop=1;jettySize=auto;html=1;" parent="1" source="bNCjpuBElS5nVC7aKLoU-7" target="bNCjpuBElS5nVC7aKLoU-23" edge="1">
          <mxGeometry relative="1" as="geometry">
            <Array as="points">
              <mxPoint x="285" y="1780" />
              <mxPoint x="1090" y="1780" />
            </Array>
          </mxGeometry>
        </mxCell>
        <mxCell id="bNCjpuBElS5nVC7aKLoU-7" value="Ground" style="swimlane;whiteSpace=wrap;html=1;" parent="1" vertex="1">
          <mxGeometry x="90" y="1380" width="390" height="320" as="geometry">
            <mxRectangle x="540" y="1650" width="80" height="30" as="alternateBounds" />
          </mxGeometry>
        </mxCell>
        <mxCell id="bNCjpuBElS5nVC7aKLoU-8" style="edgeStyle=orthogonalEdgeStyle;rounded=0;orthogonalLoop=1;jettySize=auto;html=1;" parent="bNCjpuBElS5nVC7aKLoU-7" source="bNCjpuBElS5nVC7aKLoU-9" target="bNCjpuBElS5nVC7aKLoU-11" edge="1">
          <mxGeometry relative="1" as="geometry">
            <Array as="points">
              <mxPoint x="60" y="170" />
              <mxPoint x="60" y="170" />
            </Array>
          </mxGeometry>
        </mxCell>
        <mxCell id="bNCjpuBElS5nVC7aKLoU-9" value="Idle" style="rounded=1;whiteSpace=wrap;html=1;" parent="bNCjpuBElS5nVC7aKLoU-7" vertex="1">
          <mxGeometry x="20" y="45" width="120" height="60" as="geometry" />
        </mxCell>
        <mxCell id="bNCjpuBElS5nVC7aKLoU-10" style="edgeStyle=orthogonalEdgeStyle;rounded=0;orthogonalLoop=1;jettySize=auto;html=1;" parent="bNCjpuBElS5nVC7aKLoU-7" source="bNCjpuBElS5nVC7aKLoU-11" target="bNCjpuBElS5nVC7aKLoU-9" edge="1">
          <mxGeometry relative="1" as="geometry">
            <Array as="points">
              <mxPoint x="100" y="170" />
              <mxPoint x="100" y="170" />
            </Array>
          </mxGeometry>
        </mxCell>
        <mxCell id="bNCjpuBElS5nVC7aKLoU-11" value="Move" style="rounded=1;whiteSpace=wrap;html=1;" parent="bNCjpuBElS5nVC7aKLoU-7" vertex="1">
          <mxGeometry x="20" y="235" width="120" height="60" as="geometry" />
        </mxCell>
        <mxCell id="bNCjpuBElS5nVC7aKLoU-12" style="edgeStyle=orthogonalEdgeStyle;rounded=0;orthogonalLoop=1;jettySize=auto;html=1;" parent="bNCjpuBElS5nVC7aKLoU-7" source="bNCjpuBElS5nVC7aKLoU-14" target="bNCjpuBElS5nVC7aKLoU-9" edge="1">
          <mxGeometry relative="1" as="geometry" />
        </mxCell>
        <mxCell id="bNCjpuBElS5nVC7aKLoU-13" style="edgeStyle=orthogonalEdgeStyle;rounded=0;orthogonalLoop=1;jettySize=auto;html=1;entryX=1;entryY=0.5;entryDx=0;entryDy=0;exitX=0.5;exitY=1;exitDx=0;exitDy=0;" parent="bNCjpuBElS5nVC7aKLoU-7" source="bNCjpuBElS5nVC7aKLoU-14" target="bNCjpuBElS5nVC7aKLoU-11" edge="1">
          <mxGeometry relative="1" as="geometry" />
        </mxCell>
        <mxCell id="bNCjpuBElS5nVC7aKLoU-14" value="Landing" style="rounded=1;whiteSpace=wrap;html=1;" parent="bNCjpuBElS5nVC7aKLoU-7" vertex="1">
          <mxGeometry x="230" y="45" width="120" height="60" as="geometry" />
        </mxCell>
        <mxCell id="bNCjpuBElS5nVC7aKLoU-17" value="Attack" style="rounded=1;whiteSpace=wrap;html=1;" parent="1" vertex="1">
          <mxGeometry x="1480" y="1680" width="120" height="60" as="geometry" />
        </mxCell>
        <mxCell id="bNCjpuBElS5nVC7aKLoU-30" style="edgeStyle=orthogonalEdgeStyle;rounded=0;orthogonalLoop=1;jettySize=auto;html=1;" parent="1" source="bNCjpuBElS5nVC7aKLoU-23" target="bNCjpuBElS5nVC7aKLoU-5" edge="1">
          <mxGeometry relative="1" as="geometry">
            <Array as="points">
              <mxPoint x="830" y="1550" />
              <mxPoint x="830" y="1550" />
            </Array>
          </mxGeometry>
        </mxCell>
        <mxCell id="bNCjpuBElS5nVC7aKLoU-23" value="Jump" style="swimlane;whiteSpace=wrap;html=1;" parent="1" vertex="1">
          <mxGeometry x="920" y="1395" width="340" height="290" as="geometry" />
        </mxCell>
        <mxCell id="bNCjpuBElS5nVC7aKLoU-16" value="Jump" style="rounded=1;whiteSpace=wrap;html=1;" parent="bNCjpuBElS5nVC7aKLoU-23" vertex="1">
          <mxGeometry x="20" y="65" width="120" height="60" as="geometry" />
        </mxCell>
        <mxCell id="bNCjpuBElS5nVC7aKLoU-24" value="Secound Jump" style="rounded=1;whiteSpace=wrap;html=1;" parent="bNCjpuBElS5nVC7aKLoU-23" vertex="1">
          <mxGeometry x="200" y="65" width="120" height="60" as="geometry" />
        </mxCell>
        <mxCell id="bNCjpuBElS5nVC7aKLoU-25" value="Wall Jump" style="rounded=1;whiteSpace=wrap;html=1;" parent="bNCjpuBElS5nVC7aKLoU-23" vertex="1">
          <mxGeometry x="110" y="180" width="120" height="60" as="geometry" />
        </mxCell>
        <mxCell id="x_g_pNwBDUATHda0UjRM-1" value="DrawSheath" style="rounded=1;whiteSpace=wrap;html=1;" vertex="1" parent="1">
          <mxGeometry x="620" y="1860" width="120" height="60" as="geometry" />
        </mxCell>
        <mxCell id="x_g_pNwBDUATHda0UjRM-3" style="edgeStyle=orthogonalEdgeStyle;rounded=0;orthogonalLoop=1;jettySize=auto;html=1;dashed=1;" edge="1" parent="1" source="bNCjpuBElS5nVC7aKLoU-16" target="x_g_pNwBDUATHda0UjRM-1">
          <mxGeometry relative="1" as="geometry">
            <Array as="points">
              <mxPoint x="1000" y="1890" />
            </Array>
          </mxGeometry>
        </mxCell>
      </root>
    </mxGraphModel>
  </diagram>
</mxfile>
